<svg version="1.2" xmlns="http://www.w3.org/2000/svg" viewBox="0 0 1549 1493" width="1549" height="1493">
	<title>GTLB_BIG</title>
	<style>
		.s0 { fill: #e24329 } 
		.s1 { fill: #fc6d26 } 
		.s2 { fill: #fca326 } 
	</style>
	<path class="s0" d="m1522.2 591.4l-2-5.2-210.6-550.2c-4.5-10.8-11.7-20.1-21.8-26.1-9.6-6.5-21.3-9.3-32.9-8.9-11.7 0.8-22.9 4.8-31.8 12.1-9.2 7.6-15.7 17.7-18.9 28.9l-141.9 435.2h-575.8l-142.7-435.2c-2.8-11.2-9.7-21.3-18.5-28.5-9.3-7.3-20.5-11.3-31.8-12.1-11.6-0.8-23.3 2.4-33.4 8.5-9.6 6.4-17.2 15.7-21.3 26.1l-210.7 550.2-2.4 5.2c-30.1 79.6-33.7 166.5-10.4 248.1 23.3 81.6 72.8 153.2 140.3 204.7l0.8 0.4 2 1.2 320.9 240.5 158.8 120.2 96.5 73.2c11.6 8.5 25.3 13.3 39.4 13.3 14.5 0 28.1-4.8 39.4-13.3l96.9-73.2 158.8-120.2 322.9-241.3 0.8-0.8c67.5-51.1 117-123.1 140.3-204.7 23.3-81.6 19.7-168.5-10.9-248.1z"/>
	<path class="s1" d="m1522.2 591.4l-2-5.2c-102.5 20.9-199.4 64.3-283.4 127.4l-462.8 349.9 295.1 222.8 322.9-241.3 0.8-0.8c67.5-51.1 117-123.1 140.3-204.7 23.3-81.6 19.7-168.5-10.9-248.1z"/>
	<path class="s2" d="m479.3 1286.3l158.8 120.2 96.5 73.2c11.6 8.5 25.3 13.3 39.4 13.3 14.5 0 28.1-4.8 39.4-13.3l96.9-73.2 158.8-120.2-295.1-222.8z"/>
	<path class="s1" d="m311.2 713.6c-84-63.1-180.5-106.5-283.1-127.4l-2.4 5.2c-30.1 79.6-33.7 166.5-10.4 248.1 23.3 81.6 72.8 153.2 140.3 204.7l0.8 0.4 2 1.2 320.9 240.5 294.7-222.8z"/>
</svg>